<?xml version="1.0" encoding="UTF-8"?>
<svg version="1.1" xmlns="http://www.w3.org/2000/svg" width="512" height="512">
<path d="M0 0 C0.77166504 -0.02231689 1.54333008 -0.04463379 2.33837891 -0.06762695 C5.94849707 -0.05262197 8.15786018 0.34690498 11.29296875 2.18359375 C13.52918971 4.67933745 13.9939819 5.63895714 13.9375 8.9375 C13.95039063 9.6903125 13.96328125 10.443125 13.9765625 11.21875 C12.53754815 16.02675089 7.09682823 18.24263109 2.99609375 20.68432617 C-6.6346203 26.42906595 -15.15684938 33.18857901 -23.6875 40.4375 C-24.52410156 41.13101563 -25.36070312 41.82453125 -26.22265625 42.5390625 C-30.87190404 46.46270514 -34.81741875 50.75188438 -38.6875 55.4375 C-39.34540527 56.2109375 -39.34540527 56.2109375 -40.01660156 57 C-47.84727366 66.21871766 -54.21888973 75.64891349 -59.6875 86.4375 C-60.53441406 88.10619141 -60.53441406 88.10619141 -61.3984375 89.80859375 C-78.25091222 124.75395376 -77.89463397 163.94484941 -65.625 200.3125 C-59.44940715 217.65166455 -50.47789773 233.33148231 -38.6875 247.4375 C-38.22875488 247.98728516 -37.77000977 248.53707031 -37.29736328 249.10351562 C-13.92617032 276.67428558 20.80869369 294.44977396 56.71679688 298.2265625 C94.35796558 301.28543851 131.67740103 290.95696502 160.88671875 266.55859375 C178.68752946 250.99363366 192.80111888 233.79302365 204.60546875 213.28125 C206.3125 210.4375 206.3125 210.4375 208.3125 208.4375 C210.3359375 208.06640625 210.3359375 208.06640625 212.6875 208 C213.45835937 207.96003906 214.22921875 207.92007813 215.0234375 207.87890625 C217.3125 208.4375 217.3125 208.4375 219.5703125 210.36328125 C222.00765652 214.66415511 221.91279897 218.19474334 221.8125 223.0625 C221.79968994 224.0218042 221.78687988 224.9811084 221.77368164 225.96948242 C220.41230563 276.43734759 199.27201209 324.09200039 165.453125 361.07421875 C163.58397093 363.13779213 161.78926638 365.24264613 160 367.375 C127.40528433 404.61539928 75.85424793 427.8129161 27.16430664 432.25878906 C-16.10611037 434.97036729 -59.31825692 428.36430372 -97.6875 407.4375 C-98.2846582 407.11813477 -98.88181641 406.79876953 -99.49707031 406.46972656 C-126.0892078 392.19547292 -150.20412236 371.03465885 -167.6875 346.4375 C-168.10402832 345.85468262 -168.52055664 345.27186523 -168.94970703 344.67138672 C-191.39284633 312.93074437 -205.48327791 276.10656594 -209.6875 237.4375 C-209.79835937 236.44878906 -209.90921875 235.46007812 -210.0234375 234.44140625 C-215.02321673 181.40320766 -200.08404979 126.22486346 -166.6875 84.4375 C-165.90246094 83.4475 -165.11742187 82.4575 -164.30859375 81.4375 C-153.89637927 68.58704632 -142.13832315 56.4411393 -129 46.375 C-128.36553955 45.88056396 -127.7310791 45.38612793 -127.07739258 44.87670898 C-123.03223627 41.90875745 -119.84337791 40.59373872 -114.6875 40.4375 C-111.8125 41.9375 -111.8125 41.9375 -109.6875 44.4375 C-108.60568477 48.15623986 -108.16806598 50.31982129 -109.8203125 53.875 C-112.06233361 56.951916 -114.47719046 58.77088271 -117.5625 61 C-157.95791764 91.04490939 -182.78359925 136.11115835 -190.6875 185.4375 C-197.69142578 237.22282875 -185.2396408 290.79917425 -154.6875 333.4375 C-154.06560791 334.30955078 -154.06560791 334.30955078 -153.43115234 335.19921875 C-122.70507099 377.77487488 -77.86643361 403.05824825 -26.6875 412.4375 C-25.98334961 412.57027344 -25.27919922 412.70304687 -24.55371094 412.83984375 C17.26324549 420.34707345 61.23920888 411.26036178 98.3125 391.4375 C98.91835938 391.11523438 99.52421875 390.79296875 100.1484375 390.4609375 C145.57427479 366.06190699 179.36180753 324.24888642 195.3125 275.4375 C198.9602884 263.62439988 198.9602884 263.62439988 200.3125 251.4375 C199.50167969 252.39269531 198.69085938 253.34789062 197.85546875 254.33203125 C169.205507 287.88407772 133.65223552 311.53679673 88.87011719 316.23901367 C43.68200752 319.74588014 0.37812047 306.10484891 -34.359375 277.03857422 C-37.9317038 273.9713674 -41.34853229 270.75721968 -44.6875 267.4375 C-45.1820166 266.94701172 -45.6765332 266.45652344 -46.18603516 265.95117188 C-54.53021991 257.56144904 -61.3840532 248.43723402 -67.6875 238.4375 C-68.29271484 237.48085449 -68.29271484 237.48085449 -68.91015625 236.50488281 C-83.76033646 212.62451876 -91.3148675 184.38037587 -92.6875 156.4375 C-92.76871094 154.79974609 -92.76871094 154.79974609 -92.8515625 153.12890625 C-93.95424562 108.16950823 -75.40964461 67.34464123 -45.30859375 34.87109375 C-40.46209903 29.88974005 -35.28428801 25.55239615 -29.6875 21.4375 C-49.70379053 23.54674352 -68.84350987 31.51550493 -86.6875 40.4375 C-91.06112014 40.93262681 -93.00705244 40.92973866 -96.625 38.3125 C-99.04555411 34.93839427 -99.29228752 33.49821623 -98.6875 29.4375 C-97.69171367 26.28627744 -96.69583003 25.44289546 -93.87109375 23.61328125 C-92.63124917 22.97469738 -91.38157205 22.35500464 -90.125 21.75 C-89.43172607 21.41186279 -88.73845215 21.07372559 -88.02416992 20.7253418 C-60.48799205 7.73590703 -30.4504705 0.51555406 0 0 Z " fill="currentColor" transform="translate(250.6875,39.5625)"/>
<path d="M0 0 C4.32384077 1.31099504 6.54064672 5.09641486 9.07421875 8.62890625 C10.01394531 9.93021484 10.01394531 9.93021484 10.97265625 11.2578125 C12.30441724 13.10806541 13.63247126 14.96099147 14.95703125 16.81640625 C17.75501505 20.5332851 20.83032454 23.9349337 23.99609375 27.33984375 C26.07421875 29.62890625 26.07421875 29.62890625 27.83984375 31.98046875 C51.93827561 60.54469393 93.98305457 77.59751317 130.38110352 81.43920898 C136.22885191 81.85111185 142.09004387 81.7712582 147.94921875 81.75390625 C149.89634766 81.75970703 149.89634766 81.75970703 151.8828125 81.765625 C158.60364824 81.75884313 165.17456213 81.56174092 171.84570312 80.71508789 C175.21088476 80.58494886 177.37749525 81.71281323 180.07421875 83.62890625 C181.63893108 86.7583309 181.77123833 90.23972848 181.07421875 93.62890625 C177.22958847 98.3674793 173.6023559 98.56715762 167.79296875 99.30224609 C161.38643105 99.86500525 155.00183776 99.97728633 148.57421875 99.94140625 C147.87523468 99.9392511 147.17625061 99.93709595 146.45608521 99.93487549 C134.46171274 99.8758395 122.83059312 99.11408578 111.07421875 96.62890625 C110.17509766 96.44086426 109.27597656 96.25282227 108.34960938 96.05908203 C80.95304868 90.10104106 54.85701852 78.39908501 33.07421875 60.62890625 C32.55698242 60.2117334 32.03974609 59.79456055 31.50683594 59.36474609 C18.42062865 48.77096281 7.01702814 37.23548542 -2.92578125 23.62890625 C-3.66570312 22.62214844 -4.405625 21.61539062 -5.16796875 20.578125 C-10.32448888 13.0918518 -10.32448888 13.0918518 -10.61328125 8.19140625 C-9.92578125 4.62890625 -9.92578125 4.62890625 -8.42578125 2.12890625 C-5.60399534 0.4358347 -3.30840491 -0.18957588 0 0 Z " fill="currentColor" transform="translate(108.92578125,341.37109375)"/>
<path d="M0 0 C3.52638399 2.6921306 4.84958086 4.185967 5.6640625 8.59375 C5.64472656 10.52734375 5.64472656 10.52734375 5.625 12.5 C5.63789063 13.7890625 5.65078125 15.078125 5.6640625 16.40625 C4.84978431 20.81293196 3.51248689 22.29533396 0 25 C-3.5625 25.5625 -3.5625 25.5625 -7 25 C-9.36497439 23.13291495 -10.66030715 21.67938569 -12 19 C-12.14901491 16.89946284 -12.22138453 14.79312175 -12.25 12.6875 C-12.27578125 11.55699219 -12.3015625 10.42648438 -12.328125 9.26171875 C-11.9685426 5.68729849 -11.14022123 3.85189674 -9 1 C-5.86128812 -0.56935594 -3.46144178 -0.35201103 0 0 Z " fill="currentColor" transform="translate(278,202)"/>
<path d="M0 0 C3.91851711 0.64121189 5.06308226 1.45749219 7.4375 4.5625 C8.8472034 7.3819068 8.60734647 9.79517226 8.625 12.9375 C8.63917969 14.07960938 8.65335937 15.22171875 8.66796875 16.3984375 C8.44541859 19.45378719 8.15291768 21.06631082 6.4375 23.5625 C2.68702518 26.06281654 0.87893734 26.09853554 -3.5625 25.5625 C-7.08315808 22.86571685 -8.41222729 21.37574053 -9.2265625 16.96875 C-9.21367187 15.6796875 -9.20078125 14.390625 -9.1875 13.0625 C-9.20039063 11.7734375 -9.21328125 10.484375 -9.2265625 9.15625 C-8.1923654 3.55941864 -5.61814873 0.88707611 0 0 Z " fill="currentColor" transform="translate(445.5625,399.4375)"/>
<path d="M0 0 C1.19625 -0.0103125 2.3925 -0.020625 3.625 -0.03125 C7.57717905 0.59085226 9.23514392 1.64858304 12 4.5 C12.93605213 7.99459462 13.3742539 10.34605048 12.25 13.8125 C11 15.5 11 15.5 8 17.5 C4.6015625 17.8359375 4.6015625 17.8359375 0.625 17.875 C-0.68210937 17.90335938 -1.98921875 17.93171875 -3.3359375 17.9609375 C-7.53015779 17.43330638 -9.16679625 16.60149956 -12 13.5 C-12.6640625 11.28125 -12.6640625 11.28125 -12.625 9 C-12.63789063 8.2471875 -12.65078125 7.494375 -12.6640625 6.71875 C-10.84279259 0.63356583 -5.62054821 -0.048453 0 0 Z " fill="currentColor" transform="translate(44,67.5)"/>
<path d="M0 0 C3.23613354 1.74253345 3.82395315 2.47185944 5 6 C5.1447963 7.95475009 5.22067502 9.9151138 5.25 11.875 C5.27578125 12.90367187 5.3015625 13.93234375 5.328125 14.9921875 C4.95513784 18.41123647 4.0044298 20.23594521 2 23 C-0.54229606 24.92863839 -1.78345018 25.00902291 -5 24.875 C-8.5876107 23.82861354 -9.75489637 22.97761626 -12 20 C-12.40100915 17.16934716 -12.56122899 14.81653341 -12.5 12 C-12.51546875 11.2884375 -12.5309375 10.576875 -12.546875 9.84375 C-12.5211439 6.39578318 -12.25272368 4.35082037 -10.21875 1.52734375 C-6.8043887 -0.82303524 -3.99698673 -0.68941866 0 0 Z " fill="currentColor" transform="translate(449,446)"/>
<path d="M0 0 C2.2265625 1.51953125 2.2265625 1.51953125 4 4 C4.40100915 6.83065284 4.56122899 9.18346659 4.5 12 C4.51546875 12.7115625 4.5309375 13.423125 4.546875 14.15625 C4.52087084 17.64080765 4.27754187 19.63326919 2.15234375 22.44140625 C-0.65733673 24.47600246 -2.53537267 24.92929332 -6 25 C-8.80290419 23.78965501 -10.46048805 22.83840533 -12.12109375 20.2578125 C-13.2236825 17.4253845 -13.30101547 15.09824521 -13.3125 12.0625 C-13.32925781 11.04285156 -13.34601563 10.02320313 -13.36328125 8.97265625 C-12.95034971 5.59372186 -12.00438554 3.72615941 -10 1 C-6.87057535 -0.56471233 -3.38917777 -0.69701958 0 0 Z " fill="currentColor" transform="translate(279,248)"/>
<path d="M0 0 C1.93359375 -0.01933594 1.93359375 -0.01933594 3.90625 -0.0390625 C8.31293196 0.77521569 9.79533396 2.11251311 12.5 5.625 C13.0625 9.1875 13.0625 9.1875 12.5 12.625 C10.63291495 14.98997439 9.17938569 16.28530715 6.5 17.625 C4.40051399 17.79971848 2.29375592 17.89217852 0.1875 17.9375 C-0.94300781 17.97488281 -2.07351563 18.01226562 -3.23828125 18.05078125 C-7.14304057 17.54105818 -8.72148129 16.35290817 -11.5 13.625 C-12.94430855 10.73638291 -12.87688506 8.82852299 -12.5 5.625 C-8.7304127 0.74460275 -6.07973828 -0.06079738 0 0 Z " fill="currentColor" transform="translate(297.5,228.375)"/>
<path d="M0 0 C1.95099609 0.01546875 1.95099609 0.01546875 3.94140625 0.03125 C7.51470911 0.51035206 9.00205251 0.89186796 11.4375 3.5 C12.50128903 6.14839143 12.68628035 8.66390399 12.4375 11.5 C10.67285939 14.35993478 9.44184303 15.99782849 6.4375 17.5 C4.31514193 17.6229938 2.18838537 17.67555682 0.0625 17.6875 C-1.07960938 17.70167969 -2.22171875 17.71585937 -3.3984375 17.73046875 C-6.45378719 17.50791859 -8.06631082 17.21541768 -10.5625 15.5 C-13.06281654 11.74952518 -13.09853554 9.94143734 -12.5625 5.5 C-8.78592953 0.54594368 -6.1218065 -0.14590204 0 0 Z " fill="currentColor" transform="translate(422.5625,426.5)"/>
<path d="M0 0 C4.39976734 0.44743397 5.71105423 1.14170358 8.6875 4.375 C9.42221737 7.22619795 9.38712021 9.94491295 9.3125 12.875 C9.34150391 14.01388672 9.34150391 14.01388672 9.37109375 15.17578125 C9.33546384 19.24471748 9.2126281 20.81672428 6.3359375 23.875 C3.07389477 25.72252863 1.38250481 25.99083414 -2.3125 25.375 C-5.65011045 23.22409549 -7.04720933 22.17087201 -8.3125 18.375 C-9.22492938 7.03981964 -9.22492938 7.03981964 -5.3125 2.375 C-3.3125 0.375 -3.3125 0.375 0 0 Z " fill="currentColor" transform="translate(66.3125,86.625)"/>
<path d="M0 0 C1.69576172 -0.03867188 1.69576172 -0.03867188 3.42578125 -0.078125 C7.00020151 0.2814574 8.83560326 1.10977877 11.6875 3.25 C13.25685594 6.38871188 13.03951103 8.78855822 12.6875 12.25 C9.98112781 15.80694631 8.5098944 17.10747524 4.05859375 17.87890625 C2.76050781 17.85699219 1.46242188 17.83507812 0.125 17.8125 C-1.17566406 17.81378906 -2.47632812 17.81507812 -3.81640625 17.81640625 C-7.77804096 17.17457716 -8.97053366 16.44515212 -11.3125 13.25 C-12.3125 9.8125 -12.3125 9.8125 -12.3125 6.25 C-8.8052538 0.68678188 -6.35026567 0.08630033 0 0 Z " fill="currentColor" transform="translate(89.3125,67.75)"/>
<path d="M0 0 C2.71564468 2.51401909 3.00269366 4.02329648 3.43359375 7.75 C3.45077222 9.16656311 3.45161464 10.58340305 3.4375 12 C3.4674707 13.06734375 3.4674707 13.06734375 3.49804688 14.15625 C3.49482595 17.60908354 3.26032473 19.63840609 1.22265625 22.46875 C-1.76919803 24.52992202 -3.56590503 24.57210533 -7.09765625 24.39453125 C-10.03128795 23.78611893 -11.29390367 22.38853486 -13 20 C-14.71730409 14.84808774 -14.54551077 9.33081874 -13.3125 4.0625 C-9.91361226 -1.2786093 -5.82278974 -1.6174416 0 0 Z " fill="currentColor" transform="translate(72,42)"/>
<path d="M0 0 C0.7115625 -0.01546875 1.423125 -0.0309375 2.15625 -0.046875 C5.58069 -0.02131948 7.65093773 0.25350579 10.47265625 2.24609375 C12.1892946 4.77934267 12.51438353 6.03328887 12.4375 9.0625 C12.43621094 9.82691406 12.43492187 10.59132813 12.43359375 11.37890625 C11.89756987 14.00107711 11.09719643 14.87652324 9 16.5 C5.83990467 17.55336511 3.4446864 17.70032888 0.125 17.75 C-1.41800781 17.78867187 -1.41800781 17.78867187 -2.9921875 17.828125 C-6.68879068 17.4248592 -9.35228721 16.14771279 -12 13.5 C-12.23828125 11.57421875 -12.23828125 11.57421875 -12.3125 9.1875 C-12.34988281 8.40761719 -12.38726562 7.62773437 -12.42578125 6.82421875 C-11.19022989 0.07969529 -5.83949448 -0.12694553 0 0 Z " fill="currentColor" transform="translate(468,426.5)"/>
<path d="M0 0 C1.07411133 -0.0299707 1.07411133 -0.0299707 2.16992188 -0.06054688 C5.6384274 -0.05733232 7.69260118 0.17203633 10.5390625 2.21484375 C12.88228116 5.63353969 12.75198769 8.44011306 12.0625 12.4375 C10.31996655 15.67363354 9.59064056 16.26145315 6.0625 17.4375 C4.10774991 17.5822963 2.1473862 17.65817502 0.1875 17.6875 C-1.35550781 17.72617188 -1.35550781 17.72617188 -2.9296875 17.765625 C-6.37043884 17.39027031 -8.18854489 16.5101635 -10.9375 14.4375 C-12.59566798 11.12116405 -13.17511219 9.36634765 -12.25 5.75 C-9.11065804 0.21877844 -6.18035676 -0.06086296 0 0 Z " fill="currentColor" transform="translate(251.9375,228.5625)"/>
<path d="M0 0 C1.9375 1.6875 1.9375 1.6875 3 4 C2.87971231 7.42819926 2.6667364 9.94725831 0.8125 12.875 C-1.84199392 14.52261692 -3.88327487 14.87533099 -7 15 C-11.56521739 12.86956522 -11.56521739 12.86956522 -13 10 C-13.57801822 3.75740319 -13.57801822 3.75740319 -11.1875 0.625 C-6.96854597 -2.50908013 -4.65543084 -2.03675099 0 0 Z " fill="#000000" transform="translate(313,419)"/>
</svg>
