<?xml version="1.0" encoding="UTF-8"?>
<svg version="1.1" xmlns="http://www.w3.org/2000/svg" width="256" height="256">
<path d="M0 0 C17.67760513 13.89130306 28.51294762 32.47888213 31.62792969 54.73095703 C34.19046371 76.8726918 27.76369935 97.00852176 14.09082031 114.33544922 C1.31878943 130.00649592 -17.23601136 139.38267009 -37.12890625 141.83203125 C-59.45233813 143.73380644 -80.41225146 137.83365474 -97.78808594 123.45947266 C-112.42248019 110.58244517 -122.8989228 91.90862692 -124.31347656 72.26953125 C-125.48111989 48.07663344 -119.96765706 28.84062103 -103.88671875 10.23828125 C-76.69498425 -18.64736458 -32.2732696 -22.36162875 0 0 Z M-93.12890625 17.83203125 C-107.19733958 33.90388072 -112.27788019 50.56267355 -111.28857422 71.55566406 C-110.16411366 87.58696416 -101.22237819 102.23211946 -89.75390625 113.078125 C-81.10274219 120.41220479 -71.12862165 125.18218647 -60.12890625 127.83203125 C-58.99195312 128.10660156 -58.99195312 128.10660156 -57.83203125 128.38671875 C-40.05170764 131.31584721 -22.05584778 127.00539854 -7.26171875 116.8671875 C7.15965064 105.82145721 16.37544101 89.82152806 18.87109375 71.83203125 C20.31207371 53.07927821 15.27711769 36.41673468 4.12109375 21.39453125 C-5.91219889 9.7086963 -20.84243982 1.19027401 -36.12890625 -1.16796875 C-57.9578908 -2.49140384 -77.12396943 1.97528829 -93.12890625 17.83203125 Z " fill="#FFFFFF" transform="translate(174.12890625,64.16796875)"/>
<path d="M0 0 C1.66015625 1.11328125 1.66015625 1.11328125 3 3 C3.58984375 6.0390625 3.58984375 6.0390625 3.9375 9.625 C4.71694589 15.79086059 5.94752623 20.60493008 9 26 C9.39832031 26.74765625 9.79664062 27.4953125 10.20703125 28.265625 C13.66209463 34.12031453 17.87848824 37.38692091 23.609375 40.98046875 C26.53824845 43.45469681 27.2247369 45.28169993 28 49 C27.0625 51.875 27.0625 51.875 25 54 C20.319726 55.02966028 17.47630899 53.96725437 13.5625 51.5 C0.8621567 42.25553243 -6.64375586 30.38978709 -9.58984375 14.8984375 C-10.24521422 10.26715284 -10.81561072 5.91908404 -8.9375 1.5 C-5.94927177 -0.81346701 -3.65496159 -0.4568702 0 0 Z " fill="#FFFFFF" transform="translate(83,122)"/>
<path d="M0 0 C4.01338581 4.19007575 6.81609275 9.4004486 9.75 14.375 C10.25660156 15.2 10.76320312 16.025 11.28515625 16.875 C14.21864921 21.85640313 15.76543176 25.19922792 15 31 C13.875 32.9375 13.875 32.9375 12 34 C9.125 34.5625 9.125 34.5625 6 34 C1.39453319 29.24796055 -1.64853862 23.71204634 -4.8125 17.9375 C-5.31458984 17.05255859 -5.81667969 16.16761719 -6.33398438 15.25585938 C-6.80771484 14.39669922 -7.28144531 13.53753906 -7.76953125 12.65234375 C-8.19854736 11.87882568 -8.62756348 11.10530762 -9.06958008 10.30834961 C-10.1288813 7.68024857 -10.24894944 5.80931917 -10 3 C-7.66064607 -0.99066258 -4.22716413 -0.59328619 0 0 Z " fill="#FFFFFF" transform="translate(180,206)"/>
<path d="M0 0 C3.97261054 4.26907401 6.84254592 9.38516817 9.8125 14.375 C10.32748047 15.2 10.84246094 16.025 11.37304688 16.875 C13.75103479 20.88606396 14.99772781 23.22896905 15.01171875 27.9765625 C14 31 14 31 11 33 C8.0625 33.4375 8.0625 33.4375 5 33 C0.95558336 28.74905996 -1.77923182 23.49519022 -4.6875 18.4375 C-5.18572266 17.58736328 -5.68394531 16.73722656 -6.19726562 15.86132812 C-6.67228516 15.03955078 -7.14730469 14.21777344 -7.63671875 13.37109375 C-8.06686279 12.62786865 -8.49700684 11.88464355 -8.94018555 11.11889648 C-9.98350986 9.03296888 -10.67079383 7.3080118 -11 5 C-8.20960877 -0.71365823 -6.17608318 -1.72930329 0 0 Z " fill="#FFFFFF" transform="translate(71,17)"/>
<path d="M0 0 C3.96364719 1.81529161 7.61502381 4.07348495 11.3125 6.375 C12.81393555 7.27992187 12.81393555 7.27992187 14.34570312 8.203125 C21.62942395 12.62942395 21.62942395 12.62942395 24 15 C24.47171648 18.61649298 24.41791658 20.37312512 22.375 23.4375 C20 25 20 25 17.16870117 24.76123047 C14.00556804 24.00133763 11.73286045 23.00220785 8.92578125 21.3828125 C8.01119141 20.85816406 7.09660156 20.33351563 6.15429688 19.79296875 C4.74760742 18.96732422 4.74760742 18.96732422 3.3125 18.125 C2.36310547 17.58230469 1.41371094 17.03960937 0.43554688 16.48046875 C-7.76989201 11.73025714 -7.76989201 11.73025714 -10 9 C-10.38976435 5.88188517 -10.50422245 3.88980433 -8.9375 1.125 C-5.92314462 -0.62527087 -3.33412038 -0.66231001 0 0 Z " fill="#FFFFFF" transform="translate(26,61)"/>
<path d="M0 0 C3.5625 0.375 3.5625 0.375 5.5625 2 C6.95137022 5.29856677 6.44058035 6.88662624 5.5625 10.375 C4.153391 13.47693611 2.50095819 16.41775819 0.8125 19.375 C0.38195312 20.15617187 -0.04859375 20.93734375 -0.4921875 21.7421875 C-3.09364091 26.36872441 -5.75853244 30.53211805 -9.4375 34.375 C-12.71163391 34.9643441 -14.414744 34.95456173 -17.3125 33.3125 C-19.06277087 30.29814462 -19.09981001 27.70912038 -18.4375 24.375 C-16.62220839 20.41135281 -14.36401505 16.75997619 -12.0625 13.0625 C-11.45921875 12.06154297 -10.8559375 11.06058594 -10.234375 10.02929688 C-4.43351286 0.48365595 -4.43351286 0.48365595 0 0 Z " fill="#FFFFFF" transform="translate(79.4375,205.625)"/>
<path d="M0 0 C2 2 2 2 2.5234375 4.91796875 C2.35136988 10.74260879 -1.39226181 15.52061154 -4.375 20.3125 C-4.97828125 21.31345703 -5.5815625 22.31441406 -6.203125 23.34570312 C-10.62942395 30.62942395 -10.62942395 30.62942395 -13 33 C-19.14231015 33.6700702 -19.14231015 33.6700702 -22 31.4375 C-23.4542011 27.89288482 -22.83025764 25.7380378 -22 22 C-20.61115883 18.98731019 -18.9290386 16.19534577 -17.1875 13.375 C-16.74857422 12.63765625 -16.30964844 11.9003125 -15.85742188 11.140625 C-8.02945048 -1.8400824 -8.02945048 -1.8400824 0 0 Z " fill="#FFFFFF" transform="translate(193,17)"/>
<path d="M0 0 C1.66650391 1.08007813 1.66650391 1.08007813 3 3 C3.38818359 6.13867188 3.38818359 6.13867188 3.3984375 9.96875 C3.40274277 10.98382629 3.40274277 10.98382629 3.40713501 12.01940918 C3.40917397 13.44833209 3.40365569 14.87728302 3.39111328 16.30615234 C3.37505511 18.49249725 3.39096534 20.67699379 3.41015625 22.86328125 C3.40817379 24.25260824 3.40433004 25.64193409 3.3984375 27.03125 C3.39505371 28.29517578 3.39166992 29.55910156 3.38818359 30.86132812 C3 34 3 34 1.69384766 35.90429688 C-1.24637393 37.80624477 -3.62932339 37.48152523 -7 37 C-9.93655911 33.29411059 -10.37612676 30.39790603 -10.36328125 25.74609375 C-10.36263672 24.56208984 -10.36199219 23.37808594 -10.36132812 22.15820312 C-10.34521484 20.93037109 -10.32910156 19.70253906 -10.3125 18.4375 C-10.31572266 17.20580078 -10.31894531 15.97410156 -10.32226562 14.70507812 C-10.26069031 4.43319577 -10.26069031 4.43319577 -8 1 C-5.20129973 -0.39935013 -3.09501208 -0.25265405 0 0 Z " fill="#FFFFFF" transform="translate(131,0)"/>
<path d="M0 0 C2.5612793 1.16748047 2.5612793 1.16748047 5.07421875 2.6171875 C5.98880859 3.14183594 6.90339844 3.66648438 7.84570312 4.20703125 C9.25239258 5.03267578 9.25239258 5.03267578 10.6875 5.875 C12.1115918 6.68904297 12.1115918 6.68904297 13.56445312 7.51953125 C21.76989201 12.26974286 21.76989201 12.26974286 24 15 C24.38976435 18.11811483 24.50422245 20.11019567 22.9375 22.875 C19.92314462 24.62527087 17.33412038 24.66231001 14 24 C10.03635281 22.18470839 6.38497619 19.92651505 2.6875 17.625 C1.68654297 17.02171875 0.68558594 16.4184375 -0.34570312 15.796875 C-7.62942395 11.37057605 -7.62942395 11.37057605 -10 9 C-10.375 5.5625 -10.375 5.5625 -10 2 C-6.93937921 -1.76691789 -4.42502037 -1.01394642 0 0 Z " fill="#FFFFFF" transform="translate(216,171)"/>
<path d="M0 0 C2.33043558 3.49565336 2.58763244 4.8865729 2 9 C-2.22949191 12.99121067 -7.38922743 15.80947469 -12.375 18.75 C-13.2 19.25660156 -14.025 19.76320312 -14.875 20.28515625 C-19.85640313 23.21864921 -23.19922792 24.76543176 -29 24 C-30.9375 22.875 -30.9375 22.875 -32 21 C-32.5625 18.125 -32.5625 18.125 -32 15 C-27.25519616 10.41668867 -21.73952675 7.31550164 -16 4.125 C-15.1234375 3.61453125 -14.246875 3.1040625 -13.34375 2.578125 C-5.05792528 -2.03897613 -5.05792528 -2.03897613 0 0 Z " fill="#FFFFFF" transform="translate(48,171)"/>
<path d="M0 0 C1.66650391 1.08007812 1.66650391 1.08007812 3 3 C3.38818359 6.13867188 3.38818359 6.13867188 3.3984375 9.96875 C3.40274277 10.98382629 3.40274277 10.98382629 3.40713501 12.01940918 C3.40917397 13.44833209 3.40365569 14.87728302 3.39111328 16.30615234 C3.37505511 18.49249725 3.39096534 20.67699379 3.41015625 22.86328125 C3.40817379 24.25260824 3.40433004 25.64193409 3.3984375 27.03125 C3.39505371 28.29517578 3.39166992 29.55910156 3.38818359 30.86132812 C3 34 3 34 1.66259766 35.91601562 C-0.91858526 37.5989014 -3.000528 37.312445 -6 37 C-9 35 -9 35 -10 32 C-10.23592291 27.52460194 -10.18517947 23.04344937 -10.1875 18.5625 C-10.19974609 17.32177734 -10.21199219 16.08105469 -10.22460938 14.80273438 C-10.22654297 13.61099609 -10.22847656 12.41925781 -10.23046875 11.19140625 C-10.23457764 10.10029541 -10.23868652 9.00918457 -10.24291992 7.88500977 C-10.00164041 5.0194821 -9.5777202 3.38028001 -8 1 C-5.20129973 -0.39935013 -3.09501208 -0.25265405 0 0 Z " fill="#FFFFFF" transform="translate(131,219)"/>
<path d="M0 0 C2.39212554 2.08346418 2.92257594 3.32196719 3.28076172 6.45874023 C3 9 3 9 1.57080078 10.60961914 C0.91063965 11.05942139 0.25047852 11.50922363 -0.4296875 11.97265625 C-1.52748535 12.72699951 -1.52748535 12.72699951 -2.64746094 13.49658203 C-6.4238155 15.90990617 -10.22120196 18.23544192 -14.125 20.4375 C-14.89714844 20.89576172 -15.66929687 21.35402344 -16.46484375 21.82617188 C-20.07420229 23.86450638 -22.21685551 25.02051517 -26.4296875 24.91015625 C-29 24 -29 24 -31 22 C-31.4375 18.625 -31.4375 18.625 -31 15 C-26.82093728 10.98070025 -21.59628176 8.18197887 -16.625 5.25 C-15.8 4.74339844 -14.975 4.23679687 -14.125 3.71484375 C-9.16449448 0.79365717 -5.78247768 -0.83034285 0 0 Z " fill="#FFFFFF" transform="translate(237,61)"/>
<path d="M0 0 C0.70523804 0.00091141 1.41047607 0.00182281 2.13708496 0.00276184 C2.8619812 -0.00152328 3.58687744 -0.00580841 4.33374023 -0.01022339 C5.86697342 -0.01596858 7.40023386 -0.01646555 8.93347168 -0.01213074 C11.2843654 -0.00896897 13.63400304 -0.03243152 15.98474121 -0.05778503 C17.47302087 -0.06005778 18.96130392 -0.06076164 20.44958496 -0.05973816 C21.50744202 -0.07355278 21.50744202 -0.07355278 22.58666992 -0.08764648 C24.56872559 -0.06877136 24.56872559 -0.06877136 27.79333496 0.30354309 C30.10665982 3.77353038 30.13291059 5.22863557 29.79333496 9.30354309 C29.13333496 10.29354309 28.47333496 11.28354309 27.79333496 12.30354309 C25.26286673 12.59571178 22.98040616 12.69987449 20.44958496 12.66682434 C19.72468872 12.66732285 18.99979248 12.66782135 18.25292969 12.66833496 C16.719658 12.66599351 15.18638255 12.65626065 13.65319824 12.63972473 C11.30242651 12.61613433 8.95278867 12.61916231 6.60192871 12.62580872 C5.11364068 12.62023194 3.62535744 12.61312206 2.13708496 12.60432434 C1.43184692 12.60523575 0.72660889 12.60614716 0 12.60708618 C-4.97563283 12.5345753 -4.97563283 12.5345753 -7.20666504 10.30354309 C-7.47229004 8.42854309 -7.47229004 8.42854309 -7.45666504 6.30354309 C-7.46182129 5.60229309 -7.46697754 4.90104309 -7.47229004 4.17854309 C-6.84501932 -0.24925021 -3.75805165 0.05476683 0 0 Z " fill="#FFFFFF" transform="translate(7.2066650390625,121.69645690917969)"/>
<path d="M0 0 C2.53005647 -0.30457221 4.81183724 -0.4202394 7.34375 -0.3984375 C8.06864624 -0.40130768 8.79354248 -0.40417786 9.54040527 -0.40713501 C11.07365703 -0.40917731 12.60693474 -0.40363577 14.14013672 -0.39111328 C16.4911508 -0.37506042 18.84044583 -0.39095469 21.19140625 -0.41015625 C22.67969131 -0.40817385 24.16797529 -0.40433022 25.65625 -0.3984375 C26.36148804 -0.40451019 27.06672607 -0.41058289 27.79333496 -0.4168396 C29.77539062 -0.38818359 29.77539062 -0.38818359 33 0 C35.31332486 3.46998729 35.33957563 4.92509248 35 9 C34.34 9.99 33.68 10.98 33 12 C30.46994353 12.30457221 28.18816276 12.4202394 25.65625 12.3984375 C24.93135376 12.40130768 24.20645752 12.40417786 23.45959473 12.40713501 C21.92634297 12.40917731 20.39306526 12.40363577 18.85986328 12.39111328 C16.5088492 12.37506042 14.15955417 12.39095469 11.80859375 12.41015625 C10.32030869 12.40817385 8.83202471 12.40433022 7.34375 12.3984375 C6.28589294 12.40754654 6.28589294 12.40754654 5.20666504 12.4168396 C3.22460938 12.38818359 3.22460938 12.38818359 0 12 C-2.31332486 8.53001271 -2.33957563 7.07490752 -2 3 C-1.34 2.01 -0.68 1.02 0 0 Z " fill="#FFFFFF" transform="translate(221,122)"/>
</svg>
